<svg width="32" height="32" viewBox="0 0 32 32" fill="none" xmlns="http://www.w3.org/2000/svg">
<path d="M3.99996 7.99996C3.26663 7.99996 2.66663 8.59996 2.66663 9.33329V26.6666C2.66663 28.1333 3.86663 29.3333 5.33329 29.3333H22.6666C23.4 29.3333 24 28.7333 24 28C24 27.2666 23.4 26.6666 22.6666 26.6666H6.66663C5.93329 26.6666 5.33329 26.0666 5.33329 25.3333V9.33329C5.33329 8.59996 4.73329 7.99996 3.99996 7.99996ZM26.6666 2.66663H10.6666C9.19996 2.66663 7.99996 3.86663 7.99996 5.33329V21.3333C7.99996 22.8 9.19996 24 10.6666 24H26.6666C28.1333 24 29.3333 22.8 29.3333 21.3333V5.33329C29.3333 3.86663 28.1333 2.66663 26.6666 2.66663ZM24 14.6666H13.3333C12.6 14.6666 12 14.0666 12 13.3333C12 12.6 12.6 12 13.3333 12H24C24.7333 12 25.3333 12.6 25.3333 13.3333C25.3333 14.0666 24.7333 14.6666 24 14.6666ZM18.6666 20H13.3333C12.6 20 12 19.4 12 18.6666C12 17.9333 12.6 17.3333 13.3333 17.3333H18.6666C19.4 17.3333 20 17.9333 20 18.6666C20 19.4 19.4 20 18.6666 20ZM24 9.33329H13.3333C12.6 9.33329 12 8.73329 12 7.99996C12 7.26663 12.6 6.66663 13.3333 6.66663H24C24.7333 6.66663 25.3333 7.26663 25.3333 7.99996C25.3333 8.73329 24.7333 9.33329 24 9.33329Z" fill="#444B53"/>
</svg>
